<svg fill="#000000" xmlns="http://www.w3.org/2000/svg"  viewBox="0 0 50 50" width="50px" height="50px"><path d="M 31 2 C 22 2 13.511719 5.824219 9.078125 13.5 C 5.941406 18.9375 5.125 25.515625 6.84375 31.542969 C 8.5 37.355469 12.277344 42.09375 17.488281 44.890625 C 21.425781 47 26 48 30 48 C 34.585938 48 38.570313 46.671875 42.574219 43.921875 C 42.953125 43.660156 43.117188 43.191406 42.984375 42.753906 C 42.847656 42.316406 42.445313 42.019531 41.988281 42.015625 C 38.351563 41.996094 34.378906 40.195313 31.175781 38.035156 C 29.011719 38.171875 24.042969 38.648438 21.5 38 C 19.789063 37.5625 17.089844 36.296875 15.984375 33.0625 C 19.742188 35.8125 24.402344 35.085938 27.402344 35.003906 C 26.414063 34.046875 25.664063 33.140625 25.265625 32.40625 L 27.535156 30.890625 C 27.839844 30.691406 28.011719 30.339844 27.980469 29.980469 C 27.949219 29.617188 27.726563 29.296875 27.394531 29.148438 C 27.378906 29.140625 26.535156 28.742188 25.558594 27.808594 C 25.855469 27.488281 26.109375 27.09375 26.292969 26.644531 C 26.742188 25.558594 26.980469 24.070313 27 22.011719 C 27.003906 21.742188 26.898438 21.484375 26.710938 21.296875 C 26.523438 21.105469 26.265625 21 26 21 L 23 21 L 23 23 L 22.808594 23 C 22.804688 23 22.808594 23 22.808594 23 L 21.9375 23 C 21.722656 26.332031 20.546875 28.058594 18.984375 28.058594 C 17.457031 28.058594 16.230469 26.371094 16.027344 23 L 12 23 C 11.449219 23 11 22.550781 11 22 C 11 21.445313 11.449219 21 12 21 L 23.03125 21 C 23 12.453125 28.761719 5.808594 31.566406 3.925781 C 31.933594 3.679688 32.105469 3.226563 31.996094 2.796875 C 31.882813 2.367188 31.441406 2.035156 31 2 Z"/></svg>